<svg xmlns="http://www.w3.org/2000/svg" viewBox="0 0 760 400" font-family="ui-sans-serif, system-ui, 'Segoe UI', Roboto, Helvetica, Arial, sans-serif">
  <rect width="760" height="400" fill="#ffffff"/>
  <defs>
    <marker id="bk" viewBox="0 0 10 10" refX="8" refY="5" markerWidth="7.5" markerHeight="7.5" orient="auto">
      <path d="M0,0 L10,5 L0,10 z" fill="#111827"/>
    </marker>
  </defs>
  <text x="380" y="34" text-anchor="middle" font-size="21" font-weight="700" fill="#111827">The holographic relation — a 2-D screen that creates 3-D space</text>
  <text x="380" y="56" text-anchor="middle" font-size="13" fill="#6b7280">the blanket doesn't sit in space; it renders it — bulk = boundary, a necessity of closure</text>

  <!-- 2-D screen -->
  <g>
    <polygon points="70,110 270,110 230,215 30,215" fill="#eff6ff" stroke="#2563eb" stroke-width="2"/>
    <g stroke="#93c5fd" stroke-width="1">
      <line x1="103" y1="110" x2="63" y2="215"/><line x1="137" y1="110" x2="97" y2="215"/><line x1="170" y1="110" x2="130" y2="215"/><line x1="203" y1="110" x2="163" y2="215"/><line x1="237" y1="110" x2="197" y2="215"/>
      <line x1="50" y1="162" x2="250" y2="162"/>
      <line x1="70" y1="110" x2="63" y2="215"/><line x1="103" y1="110" x2="97" y2="215"/>
    </g>
    <text x="150" y="240" text-anchor="middle" font-size="13" font-weight="700" fill="#1d4ed8">2-D screen</text>
    <text x="150" y="258" text-anchor="middle" font-size="12" fill="#6b7280">20v² triangular ZFA closures</text>
  </g>

  <!-- projects -->
  <line x1="300" y1="160" x2="430" y2="160" stroke="#111827" stroke-width="2.2" marker-end="url(#bk)"/>
  <text x="365" y="150" text-anchor="middle" font-size="12.5" fill="#111827">projects · creates</text>

  <!-- 3-D bulk -->
  <g transform="translate(545,165)">
    <!-- iso cube -->
    <polygon points="0,0 52,-18 52,42 0,60" fill="#f5f3ff" stroke="#7c3aed" stroke-width="1.6"/>
    <polygon points="0,0 52,-18 90,0 38,18" fill="#ede9fe" stroke="#7c3aed" stroke-width="1.6"/>
    <polygon points="52,-18 90,0 90,60 52,42" fill="#ddd6fe" stroke="#7c3aed" stroke-width="1.6"/>
    <!-- axes -->
    <g stroke="#6d28d9" stroke-width="2">
      <line x1="0" y1="60" x2="110" y2="60" marker-end="url(#bk)"/>
      <line x1="0" y1="60" x2="0" y2="-30" marker-end="url(#bk)"/>
      <line x1="0" y1="60" x2="-46" y2="38" marker-end="url(#bk)"/>
    </g>
    <text x="116" y="64" font-size="12" font-weight="700" fill="#6d28d9">X</text>
    <text x="-4" y="-36" font-size="12" font-weight="700" fill="#6d28d9">Z</text>
    <text x="-58" y="36" font-size="12" font-weight="700" fill="#6d28d9">Y</text>
    <text x="45" y="100" text-anchor="middle" font-size="13" font-weight="700" fill="#6d28d9">3-D bulk</text>
    <text x="45" y="118" text-anchor="middle" font-size="12" fill="#6b7280">observables (X, Y, Z)</text>
  </g>

  <!-- dimension ladder -->
  <line x1="60" y1="300" x2="700" y2="300" stroke="#e5e7eb" stroke-width="2"/>
  <text x="60" y="324" font-size="13" font-weight="700" fill="#111827">Dimension is built by combining histories:</text>
  <g transform="translate(300,332)">
    <!-- 1-D chain -->
    <g>
      <line x1="0" y1="20" x2="60" y2="20" stroke="#374151" stroke-width="2"/>
      <circle cx="0" cy="20" r="4" fill="#374151"/><circle cx="20" cy="20" r="4" fill="#374151"/><circle cx="40" cy="20" r="4" fill="#374151"/><circle cx="60" cy="20" r="4" fill="#374151"/>
      <text x="30" y="48" text-anchor="middle" font-size="11.5" fill="#4b5563">1-D · time (worldline)</text>
    </g>
    <line x1="78" y1="20" x2="108" y2="20" stroke="#111827" stroke-width="2" marker-end="url(#bk)"/>
    <!-- 2-D diamond -->
    <g transform="translate(120,0)">
      <polygon points="30,2 58,20 30,38 2,20" fill="none" stroke="#2563eb" stroke-width="2"/>
      <circle cx="30" cy="20" r="3" fill="#2563eb"/>
      <text x="30" y="48" text-anchor="middle" font-size="11.5" fill="#4b5563">2-D · 1 space + 1 time</text>
    </g>
    <line x1="200" y1="20" x2="230" y2="20" stroke="#111827" stroke-width="2" marker-end="url(#bk)"/>
    <!-- 3-D cube -->
    <g transform="translate(244,2)">
      <polygon points="0,8 24,0 24,28 0,36" fill="none" stroke="#7c3aed" stroke-width="1.6"/>
      <polygon points="0,8 24,0 40,8 16,16" fill="none" stroke="#7c3aed" stroke-width="1.6"/>
      <polygon points="24,0 40,8 40,36 24,28" fill="none" stroke="#7c3aed" stroke-width="1.6"/>
      <text x="20" y="50" text-anchor="middle" font-size="11.5" fill="#4b5563">3 space + 1 time</text>
    </g>
  </g>
  <text x="60" y="388" font-size="11" font-style="italic" fill="#9ca3af">time is the gauge-fold (closure) direction, f = 1/R — the off-shelf 4th, leaving the 3 spatial axes (the minimal dimension the causal graph renders faithfully)</text>
</svg>
